HIERARCHY
ROOT Hips
{
  OFFSET 53.8308 93.9269 12.0199
  CHANNELS 6 Xposition Yposition Zposition Zrotation Xrotation Yrotation
  JOINT spine
  {
    OFFSET 0 7.80059 0.448573
    CHANNELS 3 Zrotation Xrotation Yrotation
    JOINT spine1
    {
      OFFSET 0 10.1364 0
      CHANNELS 3 Zrotation Xrotation Yrotation
      JOINT spine2
      {
        OFFSET 0 9.71251 0
        CHANNELS 3 Zrotation Xrotation Yrotation
        JOINT Neck
        {
          OFFSET 0 24.9361 1.18887
          CHANNELS 3 Zrotation Xrotation Yrotation
          JOINT Head
          {
            OFFSET 0 7.53384 0
            CHANNELS 3 Zrotation Xrotation Yrotation
            End Site
            {
              OFFSET 0 18.2361 -6.01402
            }
          }
        }
        JOINT RightShoulder
        {
          OFFSET -4.08965 10.4888 -0.569457
          CHANNELS 3 Zrotation Xrotation Yrotation
          JOINT RightArm
          {
            OFFSET 0 13.757 0
            CHANNELS 3 Zrotation Xrotation Yrotation
            JOINT RightArmRoll
            {
              OFFSET 0 6.94478 0
              CHANNELS 3 Zrotation Xrotation Yrotation
              JOINT RightForeArm
              {
                OFFSET 0 20.2277 0
                CHANNELS 3 Zrotation Xrotation Yrotation
                JOINT RightForeArmRoll
                {
                  OFFSET 0 7.79312 0
                  CHANNELS 3 Zrotation Xrotation Yrotation
                  JOINT RightHand
                  {
                    OFFSET 0 15.6391 0
                    CHANNELS 3 Zrotation Xrotation Yrotation
                    End Site
                    {
                      OFFSET 0 0 0
                    }
                  }
                }
              }
            }
          }
        }
        JOINT LeftShoulder
        {
          OFFSET 4.08965 10.4888 -0.569457
          CHANNELS 3 Zrotation Xrotation Yrotation
          JOINT LeftArm
          {
            OFFSET 0 13.757 0
            CHANNELS 3 Zrotation Xrotation Yrotation
            JOINT LeftArmRoll
            {
              OFFSET 0 6.94478 0
              CHANNELS 3 Zrotation Xrotation Yrotation
              JOINT LeftForeArm
              {
                OFFSET 0 20.2277 0
                CHANNELS 3 Zrotation Xrotation Yrotation
                JOINT LeftForeArmRoll
                {
                  OFFSET 0 7.79312 0
                  CHANNELS 3 Zrotation Xrotation Yrotation
                  JOINT LeftHand
                  {
                    OFFSET 0 15.6391 0
                    CHANNELS 3 Zrotation Xrotation Yrotation
                    End Site
                    {
                      OFFSET 0 0 0
                    }
                  }
                }
              }
            }
          }
        }
      }
    }
  }
  JOINT RightUpLeg
  {
    OFFSET -6.91415 -1.26788 -1.06358
    CHANNELS 3 Zrotation Xrotation Yrotation
    JOINT RightUpLegRoll
    {
      OFFSET 0 18.3378 0
      CHANNELS 3 Zrotation Xrotation Yrotation
      JOINT RightLeg
      {
        OFFSET 0 -22.7085 0
        CHANNELS 3 Zrotation Xrotation Yrotation
        JOINT RightLegRoll
        {
          OFFSET 0 22.7828 0
          CHANNELS 3 Zrotation Xrotation Yrotation
          JOINT RightFoot
          {
            OFFSET 0 18.9629 0
            CHANNELS 3 Zrotation Xrotation Yrotation
            JOINT RightToeBase
            {
              OFFSET 0 15.852 0
              CHANNELS 3 Zrotation Xrotation Yrotation
              End Site
              {
                OFFSET 0.00671906 7.67701 -0.884893
              }
            }
          }
        }
      }
    }
  }
  JOINT LeftUpLeg
  {
    OFFSET 6.91415 -1.26788 -1.06358
    CHANNELS 3 Zrotation Xrotation Yrotation
    JOINT LeftUpLegRoll
    {
      OFFSET 0 18.3379 0
      CHANNELS 3 Zrotation Xrotation Yrotation
      JOINT LeftLeg
      {
        OFFSET 0 22.7084 0
        CHANNELS 3 Zrotation Xrotation Yrotation
        JOINT LeftLegRoll
        {
          OFFSET 0 22.9934 0
          CHANNELS 3 Zrotation Xrotation Yrotation
          JOINT LeftFoot
          {
            OFFSET 0 18.7522 0
            CHANNELS 3 Zrotation Xrotation Yrotation
            JOINT LeftToeBase
            {
              OFFSET 0 15.852 0
              CHANNELS 3 Zrotation Xrotation Yrotation
              End Site
              {
                OFFSET -0.030112 7.67701 -0.884892
              }
            }
          }
        }
      }
    }
  }
}
MOTION
Frames: 10
Frame Time: 0.00208333
54.7161 93.9699 9.91968 0.0448011 -4.71623 0.968866 0.00831426 -0.767424 0.430753 0.0177846 2.49069 0.844235 0.00755967 4.13569 0.844638 -4.7706 13.8241 -0.848789 6.36089 -12.8533 -0.800227 81.3082 -4.13014 -4.08482 91.0327 16.3301 24.0404 7.95139e-015 -1.59028e-015 1.27222e-014 4.91767 12.7631 -1.79204 7.37663e-006 7.86814e-007 -3.00758 8.02957 -4.95141 0.697652 -66.5073 1.00151 0.411813 -108.341 2.70265 -22.2992 -1.2919e-006 1.6834e-007 -4.97112e-006 3.0728 9.59481 0.360554 1.38133e-006 -1.32171e-006 3 -8.03011 -4.95137 -0.697629 173.744 1.55479 0.833146 180 7.01591e-015 179.138 -179.28 10.5715 178.95 2.33264e-006 -6.37954e-006 -0.145988 -13.3016 67.642 19.2566 8.13654 25.2334 -3.48681 -177.973 1.07602 6.03296 4.54188e-006 -4.6773e-006 -1.3321 -4.01954 -13.3164 -0.112183 -1.84517e-006 -2.56875e-006 -0.223782 22.2146 71.3112 -22.8073 -8.13649 25.2327 3.48128 
54.7088 93.97 9.92787 0.0426094 -4.72532 0.985877 0.00813832 -0.769568 0.431347 0.0176271 2.48477 0.846597 0.00739788 4.12977 0.846994 -4.75385 13.8359 -0.861081 6.36968 -12.7976 -0.809116 81.3366 -4.1299 -4.08648 90.9864 16.3071 24.187 8.74653e-015 -4.77083e-015 3.18055e-015 4.8365 12.6448 -1.77559 7.37663e-006 7.86814e-007 -3.00758 8.02957 -4.95141 0.697652 -66.5123 0.991002 0.417945 -108.316 2.71527 -22.3191 -1.2919e-006 1.6834e-007 -4.97112e-006 3.08779 9.54359 0.360537 1.38133e-006 -1.32171e-006 3 -8.03011 -4.95137 -0.697629 173.754 1.55003 0.81776 180 7.01591e-015 179.138 -179.258 10.6039 178.945 2.33264e-006 -6.37954e-006 -0.143612 -13.3305 67.6712 19.2766 8.13654 25.2334 -3.48681 -177.966 1.06575 6.0295 4.54188e-006 -4.6773e-006 -1.3321 -4.01877 -13.3207 -0.112237 -1.84517e-006 -2.56875e-006 -0.223782 22.215 71.3141 -22.8107 -8.13649 25.2327 3.48128 
54.7102 93.9647 9.96097 0.0403292 -4.73485 1.00271 0.008026 -0.77159 0.431999 0.0175978 2.47904 0.849107 0.00736412 4.12404 0.849495 -4.73779 13.847 -0.873247 6.37945 -12.7408 -0.817897 81.364 -4.12974 -4.08811 90.9424 16.2845 24.3321 -3.97569e-015 3.18055e-015 -0 4.75622 12.5272 -1.7592 7.37663e-006 7.86814e-007 -3.00758 8.02957 -4.95141 0.697652 -66.5177 0.980576 0.424072 -108.291 2.7282 -22.3388 -1.2919e-006 1.6834e-007 -4.97112e-006 3.10268 9.49356 0.360481 1.38133e-006 -1.32171e-006 3 -8.03011 -4.95137 -0.697629 173.765 1.5451 0.801854 180 7.01591e-015 179.138 -179.236 10.6368 178.939 2.33264e-006 -6.37954e-006 -0.141202 -13.3598 67.7007 19.2969 8.13654 25.2334 -3.48681 -177.959 1.05477 6.0258 4.54188e-006 -4.6773e-006 -1.3321 -4.01821 -13.3249 -0.112341 -1.84517e-006 -2.56875e-006 -0.223782 22.2155 71.3167 -22.814 -8.13649 25.2327 3.48128 
54.7103 93.9659 9.96422 0.0379888 -4.7447 1.01942 0.00795824 -0.773526 0.432692 0.0176585 2.47343 0.851721 0.00742014 4.11843 0.852098 -4.72222 13.8576 -0.885327 6.38991 -12.6832 -0.826601 81.3908 -4.12962 -4.08972 90.9 16.262 24.476 -4.77083e-015 3.18055e-015 3.18055e-015 4.67656 12.4101 -1.74287 7.37663e-006 7.86814e-007 -3.00758 8.02957 -4.95141 0.697652 -66.5233 0.970211 0.430196 -108.266 2.74134 -22.3584 -1.2919e-006 1.6834e-007 -4.97112e-006 3.1175 9.44434 0.360398 1.38133e-006 -1.32171e-006 3 -8.03011 -4.95137 -0.697629 173.776 1.54007 0.785585 180 7.01591e-015 179.138 -179.213 10.6701 178.933 2.33264e-006 -6.37954e-006 -0.138767 -13.3894 67.7304 19.3173 8.13654 25.2334 -3.48681 -177.952 1.0433 6.02193 4.54188e-006 -4.6773e-006 -1.3321 -4.01779 -13.3288 -0.112479 -1.84517e-006 -2.56875e-006 -0.223782 22.2161 71.3192 -22.8171 -8.13649 25.2327 3.48128 
54.7051 93.9721 9.97855 0.0356167 -4.75472 1.03606 0.00791595 -0.775414 0.433408 0.0177709 2.4679 0.854394 0.00752767 4.1129 0.85476 -4.70692 13.868 -0.897357 6.40078 -12.6251 -0.835261 81.4173 -4.12954 -4.09132 90.8586 16.2397 24.6192 5.56597e-015 -3.18055e-015 9.54166e-015 4.5973 12.2932 -1.72659 7.37663e-006 7.86814e-007 -3.00758 8.02957 -4.95141 0.697652 -66.529 0.95988 0.436317 -108.24 2.75461 -22.3779 -1.2919e-006 1.6834e-007 -4.97112e-006 3.13228 9.3956 0.3603 1.38133e-006 -1.32171e-006 3 -8.03011 -4.95137 -0.697629 173.787 1.53497 0.769108 180 7.01591e-015 179.138 -179.19 10.7036 178.927 2.33264e-006 -6.37954e-006 -0.136318 -13.4193 67.7602 19.3379 8.13654 25.2334 -3.48681 -177.945 1.03155 6.01796 4.54188e-006 -4.6773e-006 -1.3321 -4.01746 -13.3326 -0.112638 -1.84517e-006 -2.56875e-006 -0.223782 22.2168 71.3217 -22.8202 -8.13649 25.2327 3.48128 
54.7044 93.9702 9.98909 0.0332411 -4.76478 1.05268 0.00788007 -0.777289 0.43413 0.0178965 2.46239 0.857082 0.0076485 4.10739 0.857436 -4.69168 13.8783 -0.909375 6.41176 -12.567 -0.843907 81.4436 -4.12946 -4.09291 90.8175 16.2173 24.7623 7.95139e-016 3.18055e-015 6.36111e-015 4.51818 12.1764 -1.71032 7.37663e-006 7.86814e-007 -3.00758 8.02957 -4.95141 0.697652 -66.5347 0.949559 0.442437 -108.214 2.7679 -22.3975 -1.2919e-006 1.6834e-007 -4.97112e-006 3.14705 9.34697 0.360198 1.38133e-006 -1.32171e-006 3 -8.03011 -4.95137 -0.697629 173.798 1.52985 0.752578 180 7.01591e-015 179.138 -179.167 10.7371 178.922 2.33264e-006 -6.37954e-006 -0.133867 -13.4492 67.7901 19.3585 8.13654 25.2334 -3.48681 -177.938 1.01973 6.01398 4.54188e-006 -4.6773e-006 -1.3321 -4.01715 -13.3364 -0.112801 -1.84517e-006 -2.56875e-006 -0.223782 22.2174 71.3241 -22.8233 -8.13649 25.2327 3.48128 
54.7028 93.9631 9.96991 0.0308901 -4.77476 1.06934 0.00783152 -0.779189 0.434841 0.0179971 2.45684 0.859741 0.00774432 4.10184 0.860083 -4.67631 13.8887 -0.92142 6.42256 -12.509 -0.852571 81.4701 -4.12937 -4.09452 90.7761 16.1947 24.9056 -8.82781e-032 1.59028e-015 3.18055e-015 4.43897 12.0594 -1.69407 7.37663e-006 7.86814e-007 -3.00758 8.02957 -4.95141 0.697652 -66.5404 0.93922 0.448559 -108.189 2.78113 -22.417 -1.2919e-006 1.6834e-007 -4.97112e-006 3.16184 9.2981 0.360104 1.38133e-006 -1.32171e-006 3 -8.03011 -4.95137 -0.697629 173.81 1.52477 0.736153 180 7.01591e-015 179.138 -179.145 10.7705 178.916 2.33264e-006 -6.37954e-006 -0.131422 -13.4791 67.8199 19.3792 8.13654 25.2334 -3.48681 -177.931 1.00805 6.01003 4.54188e-006 -4.6773e-006 -1.3321 -4.01679 -13.3403 -0.112955 -1.84517e-006 -2.56875e-006 -0.223782 22.2181 71.3266 -22.8264 -8.13649 25.2327 3.48128 
54.7019 93.9649 9.98759 0.0285916 -4.78452 1.08609 0.00775123 -0.78115 0.435522 0.0180343 2.4512 0.862325 0.00777689 4.0962 0.862657 -4.66057 13.8995 -0.933529 6.43291 -12.4517 -0.861284 81.4971 -4.12924 -4.09613 90.7336 16.1719 25.0497 -6.36111e-015 1.59028e-015 9.54166e-015 4.35943 11.9421 -1.67782 7.37663e-006 7.86814e-007 -3.00758 8.02957 -4.95141 0.697652 -66.5459 0.928837 0.454683 -108.163 2.79419 -22.4367 -1.2919e-006 1.6834e-007 -4.97112e-006 3.17668 9.24865 0.36003 1.38133e-006 -1.32171e-006 3 -8.03011 -4.95137 -0.697629 173.821 1.51976 0.719988 180 7.01591e-015 179.138 -179.122 10.8037 178.91 2.33264e-006 -6.37954e-006 -0.128994 -13.5089 67.8495 19.3998 8.13654 25.2334 -3.48681 -177.924 0.996721 6.00621 4.54188e-006 -4.6773e-006 -1.3321 -4.01633 -13.3443 -0.113083 -1.84517e-006 -2.56875e-006 -0.223782 22.2187 71.3292 -22.8296 -8.13649 25.2327 3.48128 
54.6966 93.9711 10.0075 0.0263736 -4.79391 1.10298 0.00762012 -0.783209 0.436157 0.0179697 2.44541 0.86479 0.00770788 4.09041 0.865115 -4.64428 13.9108 -0.945741 6.4425 -12.3952 -0.870078 81.5248 -4.12906 -4.09777 90.6894 16.1486 25.195 -3.97569e-015 1.59028e-015 -0 4.27931 11.8243 -1.66156 7.37663e-006 7.86814e-007 -3.00758 8.02957 -4.95141 0.697652 -66.5512 0.918386 0.460812 -108.138 2.80701 -22.4565 -1.2919e-006 1.6834e-007 -4.97112e-006 3.1916 9.19826 0.359987 1.38133e-006 -1.32171e-006 3 -8.03011 -4.95137 -0.697629 173.831 1.51489 0.704239 180 7.01592e-015 179.138 -179.1 10.8364 178.905 2.33264e-006 -6.37954e-006 -0.126594 -13.5385 67.8789 19.4204 8.13654 25.2334 -3.48681 -177.917 0.985953 6.00259 4.54188e-006 -4.6773e-006 -1.3321 -4.01571 -13.3485 -0.113172 -1.84517e-006 -2.56875e-006 -0.223782 22.2192 71.3319 -22.8329 -8.13649 25.2327 3.48128 
54.6933 93.9689 10.0102 0.0242638 -4.80283 1.12007 0.00741911 -0.785402 0.436728 0.0177651 2.43942 0.867093 0.00749905 4.08441 0.867412 -4.62721 13.9228 -0.958092 6.45104 -12.3399 -0.878984 81.5535 -4.12879 -4.09945 90.6428 16.1247 25.3421 -1.03368e-014 9.54166e-015 -0 4.19837 11.7057 -1.64526 7.37663e-006 7.86814e-007 -3.00758 8.02957 -4.95141 0.697652 -66.5561 0.907839 0.466946 -108.113 2.81947 -22.4764 -1.2919e-006 1.6834e-007 -4.97112e-006 3.20663 9.14658 0.359988 1.38133e-006 -1.32171e-006 3 -8.03011 -4.95137 -0.697629 173.842 1.51019 0.689061 180 7.01592e-015 179.138 -179.079 10.8686 178.899 2.33264e-006 -6.37954e-006 -0.124231 -13.5677 67.908 19.4407 8.13654 25.2334 -3.48681 -177.91 0.975957 5.99923 4.54188e-006 -4.6773e-006 -1.3321 -4.01486 -13.353 -0.113206 -1.84517e-006 -2.56875e-006 -0.223782 22.2196 71.3348 -22.8364 -8.13649 25.2327 3.48128 
